/* XPM */
static char *bovo[] = {
/* columns rows colors chars-per-pixel */
"32 32 188 2 ",
"   c #280505",
".  c #6D0202",
"X  c #710000",
"o  c #710F0F",
"O  c #7C0B0B",
"+  c #7F1010",
"@  c #7C1F1F",
"#  c #432121",
"$  c #473838",
"%  c #753030",
"&  c #7A3232",
"*  c #733C3C",
"=  c #777777",
"-  c #7C7C7C",
";  c #820606",
":  c #8A0D0D",
">  c #9E0D0D",
",  c #971B0D",
"<  c #9B1313",
"1  c #971818",
"2  c #9D1E1E",
"3  c #A40F0F",
"4  c #BE0707",
"5  c #BC1414",
"6  c #8B192A",
"7  c #BA1E21",
"8  c #872828",
"9  c #932121",
"0  c #9B2222",
"q  c #912B2B",
"w  c #813838",
"e  c #B32222",
"r  c #AB3B23",
"t  c #C81616",
"y  c #C91818",
"u  c #D61010",
"i  c #D21E1E",
"p  c #E41D1D",
"a  c #CE2323",
"s  c #C02F2F",
"d  c #D22121",
"f  c #DC2121",
"g  c #C03C3C",
"h  c #CE3E3E",
"j  c #DB3434",
"k  c #D13A3A",
"l  c #E52121",
"z  c #E12D2D",
"x  c #EE2D2D",
"c  c #F32424",
"v  c #FB2525",
"b  c #F22F2F",
"n  c #FE2B2B",
"m  c #E53131",
"M  c #EE3535",
"N  c #E23B3B",
"B  c #ED3C3C",
"V  c #F53737",
"C  c #FC3333",
"Z  c #914646",
"A  c #9B5454",
"S  c #905D5D",
"D  c #917142",
"F  c #8E6363",
"G  c #947D7D",
"H  c #987F7F",
"J  c #B56A6A",
"K  c #AE7C7C",
"L  c #DB4C4C",
"P  c #C8554B",
"I  c #CE5C5C",
"U  c #D55050",
"Y  c #D36B40",
"T  c #CF6767",
"R  c #CB6A6A",
"E  c #D36E6E",
"W  c #DA6D6D",
"Q  c #C57575",
"!  c #CC7171",
"~  c #D97575",
"^  c #DB7D7E",
"/  c #BA9F42",
"(  c #B68953",
")  c #BDA44B",
"_  c #BFA655",
"`  c #B8A769",
"'  c #BFA97D",
"]  c #C7B067",
"[  c #C7B271",
"{  c #65789B",
"}  c #6581A4",
"|  c #738FAF",
" . c #7C94B3",
".. c #848484",
"X. c #878A8A",
"o. c #8E8E8E",
"O. c #968382",
"+. c #958888",
"@. c #9E9885",
"#. c #98889D",
"$. c gray58",
"%. c #979898",
"&. c #9D9D9D",
"*. c #A68383",
"=. c #A78989",
"-. c #A59797",
";. c #A29898",
":. c #BE9494",
">. c #B19E9E",
",. c #BDA780",
"<. c #ADAA9F",
"1. c #92A5BC",
"2. c #98A9BE",
"3. c #A5A5A5",
"4. c #A6A9A9",
"5. c #ABABAB",
"6. c #BEA0A0",
"7. c #B3ADAD",
"8. c #B3AEB5",
"9. c #B2B3B2",
"0. c #BBB9B5",
"q. c #B4B7B8",
"w. c #BCBCBC",
"e. c #DC8282",
"r. c #DD8A8A",
"t. c #DE908F",
"y. c #CC9292",
"u. c #D39595",
"i. c #DD9C9C",
"p. c #E09393",
"a. c #E29B9B",
"s. c #C9BC97",
"d. c #D3BD90",
"f. c #C0ADAD",
"g. c #D2A7AA",
"h. c #DCB3AE",
"j. c #DCB7B7",
"k. c #D5BBBB",
"l. c #E5A2A2",
"z. c #E5ADAD",
"x. c #E6B4B4",
"c. c #ECBCBC",
"v. c #D3CEBE",
"b. c #97AAC2",
"n. c #9EAEC2",
"m. c #A3B2C4",
"M. c #A8B6C7",
"N. c #ADBBCC",
"B. c #B8C3D0",
"V. c #C3C3C3",
"C. c #C9C6C6",
"Z. c #CBCBCB",
"A. c #D3C0C0",
"S. c #DECACA",
"D. c #C2CDD9",
"F. c #CAD1D9",
"G. c #D3D3D3",
"H. c #DCD7D7",
"J. c #D1D6DD",
"K. c #D7DBDD",
"L. c #DBDBDB",
"P. c #E7C4C4",
"I. c #EBC2C2",
"U. c #E2CAC2",
"Y. c #EACCCC",
"T. c #F0C1C1",
"R. c #F2CECE",
"E. c #E6D5D5",
"W. c #E0DEDE",
"Q. c #EADFDF",
"!. c #F3DEDE",
"~. c #CDD6E1",
"^. c #D6DBE2",
"/. c #DEE0E3",
"(. c #E4E4E4",
"). c #EBE6E6",
"_. c #E7E7E8",
"`. c #E7E8EA",
"'. c #ECECEB",
"]. c #F9E2E2",
"[. c #F3EEEE",
"{. c #FAEEEE",
"}. c #EFF2F2",
"|. c #F2F2F2",
" X c #F8F8F7",
".X c #F7F8F8",
"XX c #FEFEFE",
"oX c None",
/* pixels */
"oXoXoXoXoXoXoXoXoXoXoXoXoXoXoXoXoXoXoXoXoXoXoXoXoXoXoXoXoXoXoXoX",
"oXoXoXoXoXoXoXoXoXoXoXoXoXoXoXoXoXoXoXoXoXoXoXoXoXoXoXoXoX$ oXoX",
"oXoXoXoXoXoXoXoXoXoXoXoXoXoXoXoXoXoXoXoXoXoXoXoXoXoXoXoX4 2 # oX",
"oXoXoXoXoXoXoXoXoXoXoXoXoXoXoXoXoXoXoXoXoXoXoXoXoXoXoX:.L v :   ",
"oXoXoXoXoXoXoXoXoXoXoXoXoXoXoXoXoXoXoXoXoXoXoXoXoXoXs y.S.! o oX",
"oXoXoXoXoXoXoXoXoXoXoXoXoXoXoXoXoXoXoXoXoXoXoXoXoXoXi b W 7.H oX",
"oXoXoXoXoXoXoXoXoXoXoXoXoXoXoXoXoXoXoXoXoXoXoXoXoXa x v 3 % oXoX",
"oXoXoXoX(.(.(.(.(.(.).(._._.'._.`._.'._._.W.'.E.U m n y . oXoXoX",
"oXoXoXoX(.W.(.(.(.(.G.Z.(.(.F.(._._.J./.(.V.W.~ j n p ; X oXoXoX",
"oXoXoXoX(.).(.(.(.(.Z.V._.(.m.M./.N.b./.).w.u.j V v > O oXoXoXoX",
"oXoXoX0._.(.)._._.'.Z.V.'.'._.1.} n._.'.(.6.h B n 5 9 :.oXoXoXoX",
"oXoXoXV._._._._.'.'.V.V.'.`.B.1.M.1.F.'.Q.I N C f q y.(.oXoXoXoX",
"oXoXoXG.'.`.`.'.'.'.w.Z.'.K.m.(.}.K.b.F.t.j V c 1 J '.`.oXoXoXoX",
"oXoXoXG.L.L.K.K.H.H.9.w.L.L.L.L.W.W.K.g.k M v e Z k.(.W.oXoXoXoX",
"oXoXoXG.9.7.9.7.9.9.&.3.9.9.9.9.9.9.>.g z n t @ =.9.9.V.oXoXoXoX",
"oXoXoX(.(.(.(.(.(./.4.Z.(.n.J.'.`.(.T i n l 8 K '.'.'.|.9.oXoXoX",
"oXoXoX'.'.'.'.'.}.(.3.Z.|.N. .^. Xi.y c c 0 F ).XX X X XZ.oXoXoX",
"oXoXoX'.'.[.}.[.}.(.&.G. X|.D.| #.7 p v e * -. XXXXXXXXXL.oXoXoX",
"oXoX9.'.}.}.}.}.}.W.%.H. X X~.{ 6 u v i w H 4. XXXXXXXXX(.oXoXoX",
"oXoXV.|.'.[.|.}.|.H.$.L.|.N. .8.P c p + *.C.&.|.XXXXXXXX'.oXoXoX",
"oXoXG.|.}.}.|.|. XH.o.(.~.b.`.v.d.Y , & Q.G.$.|.XXXXXXXX|.oXoXoX",
"oXoXG.w.q.0.w.0.w.4...9.w.w.w.s.] / D O.V.5...9.V.V.w.w.G.oXoXoX",
"oXoXG.7.3.4.4.3.<.$.{ >.4.4.@.[ ) ` <.5.4.&.- &.4.4.4.4.Z.oXoXoX",
"oXoX(.}.Y.z.x.!.XX0...).XX).' _ ( U.XXXXXXL...L.XXXXXXXXXXV.oXoX",
"oXoX).a.e.z.a.^ T.9...'.XXQ r ,.h.e.c.XXXX(.- G.XXXXXXXXXXG.oXoX",
"oXoXP.e.[..XXX!.^ ;....Xc.< A 7.q.f.R {.XX`.= V.XXXXXXXXXXL.oXoX",
"oXoXP.r..XXXXX{.^ +....Xk.S ..X.9.A.E {.XX'.= 9.XXXXXXXXXX`.oXoX",
"oXw.[.r.p.I.c.e.z.%.o. X|.(.H.j.z.e.c.XXXX|.= 4.XXXXXXXXXX|.oXoX",
"oXG. X[.c.a.l.R.XX_._.XXXXXXXXT.c.].XXXXXX X9.Z.XXXXXXXXXX XoXoX",
"oXG.'._.`.`.'.'.'.}.[.'.[.'.'.}.}.}.[.}.'.|.}.[.|.|.|.|.|.|.oXoX",
"oXoXoXoXoXoXoXoXoXoXoXoXoXoXoXoXoXoXoXoXoXoXoXoXoXoXoXoXoXoXoXoX",
"oXoXoXoXoXoXoXoXoXoXoXoXoXoXoXoXoXoXoXoXoXoXoXoXoXoXoXoXoXoXoXoX"
};
